<?xml version="1.0" standalone="no"?>
<!DOCTYPE svg PUBLIC "-//W3C//DTD SVG 20010904//EN"
 "http://www.w3.org/TR/2001/REC-SVG-20010904/DTD/svg10.dtd">
<svg version="1.0" xmlns="http://www.w3.org/2000/svg"
 width="300.000000pt" height="229.000000pt" viewBox="0 0 300.000000 229.000000"
 preserveAspectRatio="xMidYMid meet">
<metadata>
Created by potrace 1.10, written by Peter Selinger 2001-2011
</metadata>
<g transform="translate(0.000000,229.000000) scale(0.100000,-0.100000)"
fill="#000000" stroke="none">
<path d="M520 1323 c-50 -19 -50 -22 -50 -263 0 -283 -13 -264 171 -268 72 -2
140 -1 152 2 62 15 87 84 45 123 -18 16 -43 22 -113 27 -142 11 -144 46 -3 46
68 0 79 3 92 22 25 35 20 83 -10 107 -22 17 -41 21 -100 21 -56 0 -74 3 -74
14 0 10 23 15 96 18 86 4 99 7 115 27 26 32 24 82 -3 106 -20 18 -40 20 -163
22 -77 1 -147 0 -155 -4z m305 -74 l0 -40 -122 3 -123 3 0 -57 0 -58 109 0
110 0 -2 -37 -3 -37 -107 3 -107 3 0 -64 0 -63 121 0 122 0 1 -38 1 -37 -162
0 -163 0 0 230 0 230 163 0 162 0 0 -41z"/>
<path d="M1455 1323 c-11 -3 -28 -12 -37 -21 -16 -14 -18 -38 -18 -242 0 -216
1 -228 20 -245 26 -23 86 -23 109 -1 9 10 18 40 21 74 7 80 29 77 94 -10 54
-71 89 -92 135 -81 24 5 61 35 61 48 0 3 -19 35 -41 71 l-42 65 30 32 c42 45
53 69 53 121 0 77 -37 138 -104 173 -30 16 -237 27 -281 16z m244 -43 c71 -20
121 -102 106 -172 -8 -34 -60 -98 -80 -98 -30 0 -24 -22 23 -87 71 -98 70 -93
19 -93 l-44 0 -53 80 -53 80 -54 0 -55 0 4 -80 3 -80 -40 0 -40 0 0 230 0 230
115 0 c63 0 131 -4 149 -10z"/>
<path d="M1510 1136 l0 -78 86 3 c79 4 87 6 110 32 29 34 30 56 4 90 -19 24
-28 26 -110 29 l-90 3 0 -79z m165 3 c0 -21 -6 -25 -47 -33 -54 -10 -81 3 -76
38 2 15 12 22 38 26 55 9 85 -2 85 -31z"/>
<path d="M2125 1321 c-11 -5 -27 -17 -36 -27 -30 -34 -229 -422 -229 -446 0
-25 38 -51 75 -51 40 0 59 13 92 66 22 35 27 38 66 35 38 -3 42 -6 48 -37 13
-63 23 -66 193 -66 137 0 156 2 175 19 26 24 28 75 3 106 -15 18 -31 22 -115
27 -82 5 -97 9 -95 22 3 13 19 17 83 19 91 3 115 19 115 77 0 52 -29 69 -121
74 -55 2 -79 7 -79 16 0 9 27 14 96 17 86 4 99 7 115 27 26 31 24 83 -2 107
-19 17 -40 19 -193 21 -94 1 -180 -1 -191 -6z m375 -71 l0 -40 -125 0 -125 0
0 -55 0 -55 109 0 110 0 -2 -37 -3 -37 -107 3 -107 3 0 -64 0 -63 125 3 125 4
0 -41 0 -41 -163 0 -163 0 1 56 0 56 -74 0 -75 0 -28 -56 c-28 -55 -29 -56
-72 -56 l-44 0 70 133 c39 72 92 176 119 230 l49 97 190 0 190 0 0 -40z"/>
<path d="M2113 1113 l-53 -103 61 0 60 0 -3 96 c-1 52 -5 99 -8 103 -3 4 -29
-39 -57 -96z"/>
<path d="M892 1300 c-12 -12 -22 -22 -22 -25 0 -19 176 -445 190 -459 29 -29
104 -27 135 5 24 24 185 416 185 449 0 45 -93 68 -131 34 -10 -9 -39 -70 -65
-136 -26 -65 -51 -117 -57 -115 -6 2 -29 52 -52 112 -23 60 -51 119 -63 132
-27 30 -89 32 -120 3z m98 -13 c0 -2 31 -87 69 -188 51 -133 72 -178 77 -164
4 11 34 90 67 175 33 85 62 161 64 168 6 14 86 17 81 2 -1 -5 -41 -109 -88
-230 l-85 -220 -47 0 c-44 0 -47 2 -57 33 -6 17 -46 121 -89 230 l-79 197 44
0 c24 0 43 -2 43 -3z"/>
</g>
</svg>
