<?xml version="1.0" standalone="no"?>
<!DOCTYPE svg PUBLIC "-//W3C//DTD SVG 20010904//EN"
 "http://www.w3.org/TR/2001/REC-SVG-20010904/DTD/svg10.dtd">
<svg version="1.0" xmlns="http://www.w3.org/2000/svg"
 width="1024.000000pt" height="744.000000pt" viewBox="0 0 1024.000000 744.000000"
 preserveAspectRatio="xMidYMid meet">

<g transform="translate(0.000000,744.000000) scale(0.100000,-0.100000)"
fill="#000000" stroke="none">
<path d="M0 3720 l0 -3720 5120 0 5120 0 0 3720 0 3720 -5120 0 -5120 0 0
-3720z m2615 552 c9 -6 46 -253 45 -299 0 -7 -9 -13 -19 -13 -13 0 -31 20 -55
58 -46 76 -88 115 -161 149 l-60 28 -257 3 -258 4 0 -357 0 -357 228 4 c250 5
275 10 330 67 16 17 37 51 47 76 9 25 22 45 29 45 11 0 12 -40 9 -187 -6 -281
-10 -293 -70 -191 -60 102 -118 120 -384 116 l-184 -3 -3 -320 c-3 -339 6
-447 36 -461 9 -4 96 -9 192 -12 357 -9 520 56 630 252 31 55 43 65 55 47 3
-5 -11 -93 -32 -195 l-36 -186 -629 0 c-549 0 -628 2 -628 15 0 9 14 17 39 21
21 3 56 16 77 28 30 17 40 29 47 61 4 22 7 360 5 750 -3 638 -5 714 -20 747
-17 39 -45 58 -115 78 -24 7 -43 19 -43 27 0 11 103 13 588 13 323 0 592 -4
597 -8z m915 -6 c0 -7 -26 -23 -59 -35 -77 -28 -111 -55 -111 -89 1 -15 13
-58 29 -97 372 -922 483 -1189 494 -1190 10 0 8 -4 202 475 79 195 158 389
175 430 72 172 111 285 117 340 6 57 5 60 -26 89 -17 16 -52 37 -77 47 -84 32
-51 39 191 39 168 0 229 -3 232 -12 3 -7 -13 -16 -36 -23 -85 -23 -160 -113
-224 -271 -91 -224 -231 -567 -294 -719 -35 -85 -113 -280 -175 -433 l-111
-278 -50 3 c-58 3 -49 -9 -126 168 -55 127 -103 247 -416 1035 -70 176 -138
341 -150 366 -29 57 -79 101 -139 124 -25 10 -46 24 -46 31 0 12 53 14 300 14
247 0 300 -2 300 -14z m2064 4 c173 -20 309 -69 392 -142 53 -47 102 -127 120
-200 19 -74 14 -188 -11 -258 -40 -114 -145 -202 -305 -257 -52 -18 -96 -37
-98 -43 -9 -26 304 -516 404 -634 72 -84 123 -122 204 -150 34 -11 63 -25 64
-31 0 -6 -39 -11 -98 -13 -168 -5 -268 36 -391 162 -90 92 -133 153 -313 451
l-127 210 -98 3 -98 3 3 -358 c3 -414 -3 -388 109 -427 34 -11 62 -25 63 -31
1 -13 -564 -19 -577 -6 -11 11 10 22 81 41 24 6 52 20 63 31 19 19 19 36 17
772 -3 646 -5 756 -18 782 -11 23 -31 36 -78 54 -119 47 -95 51 271 51 182 0
372 -5 421 -10z m2933 -100 c6 -58 15 -129 18 -157 6 -48 5 -53 -13 -53 -14 0
-30 17 -50 53 -17 30 -53 74 -81 99 -83 75 -109 81 -388 86 l-243 4 0 -356 0
-356 185 0 c101 0 207 5 236 11 68 15 122 63 144 130 16 48 29 61 37 37 5 -15
-11 -407 -18 -426 -6 -20 -23 -5 -46 44 -26 57 -87 109 -143 123 -24 6 -123
11 -219 11 l-176 0 0 -334 c0 -317 7 -427 31 -451 6 -6 92 -10 232 -10 185 0
233 3 287 18 138 39 245 118 296 219 13 26 31 48 40 48 10 0 13 -6 10 -17 -6
-19 -76 -341 -76 -349 0 -2 -274 -4 -610 -4 -659 0 -694 3 -522 50 84 22 82
13 82 330 l0 280 -250 0 -251 0 -129 -264 c-72 -145 -130 -271 -130 -279 0
-22 19 -34 106 -64 43 -16 78 -32 77 -38 -2 -6 -90 -10 -238 -10 -151 0 -234
4 -234 10 1 6 22 18 46 27 24 9 60 28 78 43 63 47 51 27 430 765 114 223 245
478 291 568 67 130 84 171 84 206 0 42 -1 44 -42 59 -24 8 -53 18 -65 22 -13
3 -23 13 -23 21 0 12 85 14 612 12 l613 -3 12 -105z"/>
<path d="M5240 3821 l0 -379 68 -8 c37 -4 118 -2 180 3 143 14 222 48 282 124
58 74 75 134 75 264 -1 99 -4 116 -29 173 -40 87 -115 155 -203 182 -53 16
-93 20 -219 20 l-154 0 0 -379z"/>
<path d="M7480 4066 c-25 -50 -123 -243 -218 -429 -96 -186 -171 -341 -167
-345 4 -4 105 -8 226 -10 l219 -3 0 435 c0 239 -3 437 -7 439 -5 2 -28 -37
-53 -87z"/>
</g>
</svg>
