<?xml version="1.0" standalone="no"?>
<!DOCTYPE svg PUBLIC "-//W3C//DTD SVG 20010904//EN"
 "http://www.w3.org/TR/2001/REC-SVG-20010904/DTD/svg10.dtd">
<svg version="1.0" xmlns="http://www.w3.org/2000/svg"
 width="1024.000000pt" height="781.000000pt" viewBox="0 0 1024.000000 781.000000"
 preserveAspectRatio="xMidYMid meet">

<g transform="translate(0.000000,781.000000) scale(0.100000,-0.100000)"
fill="#000000" stroke="none">
<path d="M0 3905 l0 -3905 5120 0 5120 0 0 3905 0 3905 -5120 0 -5120 0 0
-3905z m2810 360 l0 -125 -415 0 -415 0 0 -201 c0 -117 4 -198 9 -195 5 4 169
3 365 -1 l356 -6 0 -119 0 -118 -365 0 -365 0 0 -205 0 -205 373 -2 c204 -1
391 -3 415 -3 l42 0 0 -122 0 -123 -545 0 -545 0 0 775 0 775 545 0 545 0 0
-125z m655 -127 c53 -139 140 -363 192 -498 116 -300 183 -483 183 -501 0 -28
19 10 58 116 38 104 122 319 318 813 46 117 94 237 105 267 l20 55 135 0 c74
0 134 -2 134 -5 0 -3 -56 -148 -125 -322 -250 -632 -317 -803 -429 -1090 l-51
-133 -154 3 -154 2 -73 190 c-40 105 -78 199 -83 210 -5 11 -23 56 -39 100
-17 44 -97 249 -177 455 -212 540 -225 574 -225 583 0 4 60 7 134 7 l133 0 98
-252z m2291 237 c250 -48 404 -239 404 -500 0 -133 -39 -232 -129 -328 -46
-49 -136 -105 -203 -127 -21 -6 -38 -14 -38 -16 0 -3 51 -78 113 -167 179
-256 267 -385 267 -391 0 -3 -66 -6 -147 -6 l-148 0 -180 270 -180 269 -177 1
-178 0 0 -270 0 -270 -130 0 -130 0 0 775 0 775 389 0 c304 0 406 -3 467 -15z
m2754 -110 l0 -125 -410 0 -410 0 0 -193 0 -194 173 -6 c94 -4 256 -7 360 -7
l187 0 0 -120 0 -120 -360 0 -360 0 0 -205 0 -205 278 -2 c152 -2 337 -3 410
-3 l132 0 0 -122 0 -123 -540 0 -540 0 0 190 0 190 -257 0 -258 -1 -25 -52
c-14 -28 -58 -113 -98 -189 l-73 -138 -140 0 -141 0 110 213 c60 116 137 264
169 327 33 63 111 214 173 335 63 121 151 292 197 380 46 88 98 190 116 227
l32 68 638 0 637 0 0 -125z"/>
<path d="M5160 3886 l0 -256 251 0 c285 0 329 7 398 66 62 53 83 102 83 190
-1 112 -44 178 -147 226 -48 22 -63 23 -317 26 l-268 3 0 -255z"/>
<path d="M7354 4068 c-39 -77 -104 -204 -236 -455 l-80 -153 198 0 197 0 -6
323 c-3 177 -9 330 -13 340 -11 30 -23 19 -60 -55z"/>
</g>
</svg>
