<?xml version="1.0" standalone="no"?>
<!DOCTYPE svg PUBLIC "-//W3C//DTD SVG 20010904//EN"
 "http://www.w3.org/TR/2001/REC-SVG-20010904/DTD/svg10.dtd">
<svg version="1.0" xmlns="http://www.w3.org/2000/svg"
 width="300.000000pt" height="218.000000pt" viewBox="0 0 300.000000 218.000000"
 preserveAspectRatio="xMidYMid meet">
<metadata>
Created by potrace 1.10, written by Peter Selinger 2001-2011
</metadata>
<g transform="translate(0.000000,218.000000) scale(0.100000,-0.100000)"
fill="#000000" stroke="none">
<path d="M424 1275 c-18 -13 -16 -14 26 -15 25 -1 107 -1 182 0 l137 1 6 -46
c4 -25 5 -48 2 -51 -3 -3 -19 9 -35 28 -29 32 -33 33 -116 37 l-86 3 0 -99 c0
-55 2 -102 4 -104 3 -2 39 -2 81 1 73 5 85 11 98 45 10 24 13 -6 7 -70 -5 -67
-6 -69 -19 -43 -16 31 -36 38 -113 38 l-58 0 0 -84 c0 -46 3 -98 6 -115 l7
-31 69 0 c82 0 128 17 159 59 12 17 26 31 29 31 4 0 1 -26 -5 -57 l-12 -58
-186 -3 c-114 -1 -187 1 -187 7 0 5 10 11 23 13 22 3 22 3 25 227 1 145 -1
228 -8 236 -11 13 -60 27 -60 16 0 -3 7 -15 15 -25 22 -29 22 -406 0 -440 -13
-19 -13 -25 -1 -42 13 -17 30 -19 193 -22 l178 -3 24 25 c38 41 31 145 -11
146 -3 0 -25 -16 -48 -35 -23 -19 -47 -36 -53 -36 -7 -1 -25 -3 -42 -5 -16 -2
-40 -2 -52 1 -21 5 -23 11 -23 79 0 71 1 74 26 80 17 5 41 0 68 -14 23 -11 47
-20 53 -20 31 0 46 126 17 154 -19 20 -16 20 -58 -5 -21 -12 -48 -19 -68 -17
l-33 3 0 65 0 65 52 -1 c39 -1 60 -8 87 -29 33 -25 39 -27 61 -15 35 19 35 77
0 114 l-24 26 -159 0 c-124 0 -162 -3 -178 -15z"/>
<path d="M872 1280 c-34 -14 -37 -37 -9 -73 13 -18 59 -120 101 -227 84 -211
107 -256 136 -265 42 -13 66 20 135 193 112 283 148 342 181 298 22 -31 20
-375 -3 -423 -26 -55 -11 -67 79 -71 61 -2 79 1 98 16 l23 19 -21 35 c-22 36
-31 121 -14 132 5 3 28 -24 52 -60 76 -115 154 -162 223 -136 20 7 36 8 48 2
10 -6 42 -10 72 -10 69 0 93 21 75 67 -10 26 -8 36 13 74 22 41 27 44 64 44
l40 0 3 -47 c2 -32 -2 -56 -14 -73 -16 -24 -16 -27 1 -45 17 -18 32 -20 190
-20 158 0 173 2 190 20 18 20 36 95 28 116 -9 25 -42 26 -71 4 -55 -44 -128
-62 -161 -41 -22 14 -26 125 -5 145 20 21 33 20 69 -4 17 -11 38 -20 47 -20
27 0 51 62 43 110 -9 52 -29 63 -69 39 -38 -23 -92 -25 -100 -3 -9 24 -7 83 3
103 16 30 94 19 138 -19 35 -31 49 -30 75 5 14 18 -3 80 -28 103 -24 21 -33
22 -179 22 -84 0 -166 -5 -181 -10 -24 -9 -26 -14 -21 -47 5 -31 -6 -59 -90
-222 -52 -102 -107 -198 -122 -214 l-27 -27 -33 24 c-33 25 -72 73 -107 133
l-18 33 40 37 c22 21 46 53 54 71 27 69 -12 156 -88 194 -42 20 -61 23 -172
22 -69 0 -138 -1 -155 -2 -16 -1 -58 1 -92 4 -57 5 -63 4 -77 -18 -13 -19 -14
-30 -5 -54 10 -25 6 -43 -30 -134 -49 -124 -57 -138 -70 -125 -5 6 -30 61 -56
123 -42 106 -45 117 -33 148 9 27 9 37 0 46 -15 15 -139 21 -170 8z m168 -29
c0 -5 -11 -12 -25 -15 -14 -4 -25 -13 -25 -22 0 -26 143 -375 151 -366 13 14
139 343 139 361 0 11 -9 23 -20 26 -41 13 -18 25 50 25 72 0 87 -8 48 -25 -29
-13 -50 -54 -147 -295 -48 -118 -85 -196 -95 -198 -17 -4 -31 25 -122 257 -85
216 -92 230 -120 237 -52 13 -19 24 71 24 52 0 95 -4 95 -9z m672 -15 c54 -23
78 -59 78 -119 0 -44 -4 -53 -36 -83 -19 -19 -41 -34 -47 -34 -39 -1 -38 -18
9 -95 54 -89 106 -145 134 -145 11 0 20 -4 20 -10 0 -18 -74 -10 -109 11 -44
26 -60 46 -120 144 -40 65 -54 80 -75 81 l-27 2 3 -112 c3 -107 4 -111 26
-114 12 -2 22 -8 22 -13 0 -5 -40 -9 -90 -9 -49 0 -90 4 -90 9 0 5 10 11 23
13 l22 3 3 232 2 233 -25 6 c-14 3 -25 10 -25 15 0 16 260 3 302 -15z m789
-26 c4 -25 5 -47 3 -49 -3 -3 -17 11 -33 29 -28 34 -31 35 -110 38 l-81 4 0
-104 0 -104 68 4 c69 4 92 14 92 38 0 8 5 14 11 14 7 0 9 -9 5 -22 -3 -13 -6
-45 -6 -73 -1 -46 -2 -48 -15 -30 -30 42 -36 45 -95 45 l-60 0 0 -115 0 -115
70 0 c87 0 145 22 166 62 22 43 28 28 13 -36 l-12 -56 -179 0 c-103 0 -178 4
-178 9 0 5 10 11 23 13 21 3 22 8 25 91 l3 87 -74 0 -73 0 -39 -81 c-33 -67
-37 -81 -25 -89 8 -5 20 -10 27 -10 6 0 15 -4 18 -10 4 -6 -22 -10 -69 -10
-44 0 -76 4 -76 10 0 6 7 10 14 10 24 0 58 55 161 258 93 183 105 222 70 222
-8 0 -15 4 -15 8 0 4 82 8 183 8 l182 -1 6 -45z"/>
<path d="M1540 1120 l0 -110 56 0 c48 0 59 4 85 29 24 24 29 38 29 76 0 25 -5
55 -10 66 -16 28 -63 49 -115 49 l-45 0 0 -110z m114 50 c37 -36 20 -101 -32
-121 -36 -14 -52 5 -52 63 0 87 31 108 84 58z"/>
<path d="M2145 1099 c-33 -66 -61 -125 -63 -130 -2 -5 26 -9 62 -9 l66 0 0
130 c0 72 -1 130 -2 130 -2 0 -30 -55 -63 -121z"/>
</g>
</svg>
